<svg width="7.609680" height="15.000000" viewBox="0 0 7.60968 15" fill="none" xmlns="http://www.w3.org/2000/svg" xmlns:xlink="http://www.w3.org/1999/xlink">
	<desc>
			Created with Pixso.
	</desc>
	<defs/>
	<path id="Vector" d="M7.6 6.07L7.36 8.16C7.35 8.26 7.31 8.35 7.23 8.41C7.16 8.48 7.07 8.51 6.98 8.52L4.79 8.52L4.78 14.71C4.78 14.79 4.76 14.86 4.7 14.91C4.65 14.96 4.58 14.99 4.51 15L2.3 15C2.26 15 2.23 14.99 2.19 14.97C2.16 14.96 2.13 14.94 2.1 14.91C2.08 14.88 2.06 14.85 2.04 14.82C2.03 14.78 2.03 14.75 2.03 14.71L2.03 8.52L0.39 8.52C0.34 8.51 0.29 8.5 0.24 8.48C0.19 8.46 0.15 8.43 0.11 8.4C0.08 8.36 0.05 8.32 0.03 8.27C0.01 8.22 0 8.17 0 8.12L6.1e-5 6.03C-0.01 5.98 0 5.93 0.02 5.88C0.04 5.83 0.07 5.79 0.11 5.75C0.14 5.71 0.19 5.68 0.23 5.66C0.28 5.64 0.33 5.63 0.38 5.63L2.03 5.63L2.03 3.61C2.03 1.27 3.42 0 5.46 0L7.13 0C7.18 0 7.23 0.01 7.28 0.03C7.33 0.05 7.37 0.08 7.41 0.11C7.44 0.15 7.47 0.19 7.49 0.24C7.51 0.29 7.52 0.34 7.52 0.39L7.52 2.15C7.52 2.2 7.51 2.26 7.49 2.3C7.47 2.35 7.44 2.4 7.41 2.43C7.37 2.47 7.33 2.5 7.28 2.52C7.23 2.54 7.18 2.55 7.13 2.55L6.1 2.55C5 2.55 4.78 3.1 4.78 3.88L4.78 5.63L7.22 5.63C7.27 5.63 7.33 5.64 7.38 5.67C7.43 5.69 7.47 5.72 7.51 5.77C7.54 5.81 7.57 5.86 7.59 5.91C7.6 5.96 7.61 6.02 7.6 6.07Z" fill="#090F1D" fill-opacity="1.000000" fill-rule="nonzero"/>
</svg>
