<svg width="14.896362" height="15.000000" viewBox="0 0 14.8964 15" fill="none" xmlns="http://www.w3.org/2000/svg" xmlns:xlink="http://www.w3.org/1999/xlink">
	<desc>
			Created with Pixso.
	</desc>
	<defs/>
	<path id="Vector" d="M4.09 2.04C4.09 2.45 3.97 2.84 3.74 3.18C3.52 3.51 3.2 3.78 2.82 3.93C2.45 4.09 2.04 4.13 1.64 4.05C1.24 3.97 0.88 3.77 0.59 3.49C0.31 3.2 0.11 2.84 0.03 2.44C-0.04 2.04 0 1.63 0.15 1.26C0.31 0.88 0.57 0.56 0.9 0.34C1.24 0.11 1.64 0 2.04 0C2.58 0 3.1 0.21 3.49 0.59C3.87 0.98 4.09 1.5 4.09 2.04ZM3.62 5.45L3.62 14.49C3.62 14.55 3.61 14.62 3.58 14.68C3.56 14.74 3.52 14.8 3.48 14.85C3.43 14.89 3.37 14.93 3.31 14.96C3.25 14.98 3.18 15 3.12 15L0.96 15C0.89 15 0.83 14.98 0.77 14.96C0.7 14.93 0.65 14.89 0.6 14.85C0.55 14.8 0.52 14.74 0.49 14.68C0.47 14.62 0.45 14.55 0.45 14.49L0.45 5.45C0.45 5.32 0.51 5.19 0.6 5.09C0.7 5 0.83 4.94 0.96 4.94L3.12 4.94C3.25 4.94 3.38 5 3.47 5.09C3.57 5.19 3.62 5.32 3.62 5.45ZM14.89 10.15L14.89 14.53C14.89 14.59 14.88 14.65 14.86 14.71C14.83 14.76 14.8 14.82 14.76 14.86C14.71 14.9 14.66 14.94 14.6 14.96C14.55 14.98 14.49 15 14.43 15L12.11 15C12.05 15 11.98 14.98 11.93 14.96C11.87 14.94 11.82 14.9 11.78 14.86C11.73 14.82 11.7 14.76 11.68 14.71C11.65 14.65 11.64 14.59 11.64 14.53L11.64 10.29C11.64 9.66 11.83 7.52 9.99 7.52C8.56 7.52 8.27 8.98 8.21 9.64L8.21 14.53C8.21 14.65 8.17 14.77 8.08 14.86C7.99 14.94 7.88 14.99 7.75 15L5.52 15C5.45 15 5.39 14.98 5.34 14.96C5.28 14.94 5.23 14.9 5.19 14.86C5.14 14.82 5.11 14.76 5.09 14.71C5.06 14.65 5.05 14.59 5.05 14.53L5.05 5.41C5.05 5.35 5.06 5.29 5.09 5.23C5.11 5.18 5.14 5.12 5.19 5.08C5.23 5.04 5.28 5 5.34 4.98C5.39 4.96 5.45 4.94 5.52 4.94L7.75 4.94C7.88 4.94 8 4.99 8.08 5.08C8.17 5.17 8.22 5.29 8.22 5.41L8.22 6.2C8.75 5.4 9.53 4.79 11.21 4.79C14.91 4.79 14.89 8.25 14.89 10.15Z" fill="#090F1D" fill-opacity="1.000000" fill-rule="nonzero"/>
</svg>
