<svg width="171.594971" height="171.501465" viewBox="0 0 171.595 171.501" fill="none" xmlns="http://www.w3.org/2000/svg" xmlns:xlink="http://www.w3.org/1999/xlink">
	<desc>
			Created with Pixso.
	</desc>
	<defs/>
	<path id="Star 1" d="M85.5 68L80.77 80.77L68 85.5L80.77 90.22L85.5 103L90.22 90.22L103 85.5L90.22 80.77L85.5 68Z" fill="#FFFFFF" fill-opacity="1.000000" fill-rule="evenodd"/>
	<path id="A" d="M5.6 86.67L15.99 90.05L16.02 87.65L13.55 86.98L13.59 83.8L16.07 83.19L16.1 80.69L5.63 83.84L5.6 86.67ZM11.71 86.48L10.76 86.22Q9.98 85.98 9.11 85.77Q8.24 85.56 7.41 85.36L7.41 85.3Q8.23 85.1 9.11 84.89Q9.99 84.69 10.78 84.49L11.74 84.26L11.71 86.48Z" fill="#FFFFFF" fill-opacity="1.000000" fill-rule="evenodd"/>
	<path id="r" d="M9.17 72.76L16.95 74.34L17.42 72.03L12.9 71.12Q12.18 70.65 11.96 70.1Q11.73 69.56 11.82 69.12Q11.87 68.87 11.94 68.68Q12.01 68.49 12.11 68.3L10.2 67.52Q10.09 67.66 10.01 67.87Q9.92 68.08 9.86 68.41Q9.73 69.01 10 69.68Q10.26 70.35 10.96 70.94L10.95 71L9.55 70.88L9.17 72.76Z" fill="#FFFFFF" fill-opacity="1.000000" fill-rule="evenodd"/>
	<path id="t" d="M19.8 61.82Q20.63 61.44 21.09 60.25Q21.3 59.72 21.36 59.27Q21.43 58.83 21.45 58.51L19.72 58.23Q19.73 58.41 19.7 58.61Q19.67 58.81 19.6 59Q19.49 59.3 19.27 59.47Q19.17 59.54 19.06 59.58Q18.68 59.74 18.06 59.5L15.08 58.35L15.77 56.57L14.05 55.91L13.36 57.69L11.4 56.94L10.7 58.76L12.57 59.77L12.22 60.94L13.85 61.56L14.24 60.55L17.24 61.7Q18.52 62.2 19.54 61.91Q19.68 61.87 19.8 61.82Z" fill="#FFFFFF" fill-opacity="1.000000" fill-rule="evenodd"/>
	<path id="w" d="M17.32 48.58L25.06 51.24L26.52 48.99L24.25 46.67Q23.84 46.27 23.42 45.89Q23 45.51 22.53 45.07L22.56 45.02Q23.16 45.27 23.69 45.49Q24.21 45.71 24.74 45.92L27.79 47.04L29.29 44.73L23.67 38.81L22.49 40.64L25.16 43.27Q25.6 43.69 26.04 44.07Q26.49 44.44 26.93 44.86L26.9 44.92Q26.33 44.68 25.78 44.47Q25.23 44.25 24.66 44.05L21.08 42.79L19.97 44.5L22.58 47.24Q22.97 47.67 23.41 48.08Q23.85 48.49 24.3 48.92L24.27 48.97Q23.7 48.72 23.18 48.47Q22.65 48.22 22.1 47.98L18.6 46.62L17.32 48.58Z" fill="#FFFFFF" fill-opacity="1.000000" fill-rule="evenodd"/>
	<path id="o" d="M36.53 36.52Q36.93 36.28 37.26 35.96Q37.63 35.6 37.89 35.17Q38.13 34.76 38.28 34.29Q38.35 34.05 38.39 33.8Q38.5 33.07 38.3 32.28Q38.04 31.23 37.13 30.29Q36.2 29.33 35.16 29.05Q34.4 28.84 33.66 28.93Q33.41 28.96 33.16 29.03Q32.68 29.15 32.26 29.39Q31.83 29.63 31.46 29.99Q31.13 30.32 30.88 30.71Q30.6 31.15 30.44 31.66Q30.36 31.93 30.32 32.21Q30.22 32.92 30.4 33.68Q30.66 34.72 31.59 35.67Q32.5 36.62 33.54 36.91Q34.31 37.12 35.04 37.03Q35.3 37 35.56 36.93Q36.08 36.79 36.53 36.52ZM36.28 34.04Q36.2 34.34 35.94 34.59Q35.66 34.87 35.33 34.94Q35.04 35 34.72 34.91Q34.03 34.72 33.32 33.99Q32.59 33.24 32.43 32.56Q32.35 32.25 32.42 31.97Q32.5 31.64 32.79 31.36Q33.06 31.1 33.36 31.02Q33.66 30.95 34 31.04Q34.68 31.22 35.41 31.96Q36.12 32.69 36.29 33.39Q36.37 33.74 36.28 34.04Z" fill="#FFFFFF" fill-opacity="1.000000" fill-rule="evenodd"/>
	<path id="r" d="M40.51 22.61L44.93 29.21L46.88 27.9L44.32 24.07Q44.14 23.23 44.36 22.69Q44.59 22.14 44.96 21.89Q45.17 21.75 45.35 21.67Q45.54 21.58 45.75 21.52L44.93 19.62Q44.76 19.64 44.55 19.73Q44.34 19.82 44.06 20.01Q43.56 20.34 43.27 21.01Q42.98 21.67 43.07 22.58L43.02 22.61L42.11 21.55L40.51 22.61Z" fill="#FFFFFF" fill-opacity="1.000000" fill-rule="evenodd"/>
	<path id="k" d="M50.42 12.88L54.88 23.17L56.98 22.26L56.2 20.47L56.67 19.03L59.55 21.15L61.88 20.14L57.28 17.04L58.53 12.94L56.18 13.95L55.13 17.85L55.07 17.87L52.52 11.97L50.42 12.88Z" fill="#FFFFFF" fill-opacity="1.000000" fill-rule="evenodd"/>
	<path id="o" d="M70.06 17.92Q70.52 17.93 70.98 17.83Q71.48 17.72 71.92 17.5Q72.35 17.28 72.72 16.95Q72.91 16.79 73.07 16.6Q73.56 16.03 73.81 15.26Q74.14 14.23 73.86 12.95Q73.58 11.65 72.85 10.86Q72.31 10.27 71.64 9.96Q71.41 9.85 71.16 9.78Q70.69 9.63 70.21 9.61Q69.72 9.59 69.21 9.7Q68.75 9.8 68.34 10Q67.87 10.23 67.46 10.58Q67.25 10.76 67.07 10.98Q66.61 11.53 66.36 12.27Q66.03 13.29 66.31 14.59Q66.59 15.87 67.32 16.67Q67.85 17.25 68.52 17.57Q68.76 17.68 69.02 17.76Q69.54 17.91 70.06 17.92ZM71.16 15.69Q70.93 15.9 70.57 15.97Q70.19 16.06 69.87 15.94Q69.6 15.85 69.37 15.6Q68.89 15.07 68.67 14.07Q68.45 13.06 68.67 12.39Q68.78 12.08 68.98 11.89Q69.23 11.65 69.62 11.56Q69.98 11.49 70.28 11.58Q70.57 11.67 70.81 11.93Q71.3 12.44 71.52 13.46Q71.73 14.46 71.5 15.14Q71.39 15.48 71.16 15.69Z" fill="#FFFFFF" fill-opacity="1.000000" fill-rule="evenodd"/>
	<path id="f" d="M81.23 10.07L81.47 16.16L83.82 16.07L83.58 9.98L85 9.92L84.93 8.08L83.51 8.14L83.49 7.66Q83.46 7.05 83.69 6.78Q83.75 6.72 83.81 6.67Q84.02 6.5 84.35 6.49Q84.54 6.48 84.75 6.51Q84.96 6.54 85.17 6.62L85.54 4.87Q85.28 4.79 84.86 4.71Q84.44 4.63 83.94 4.65Q82.87 4.69 82.25 5.13Q81.9 5.38 81.66 5.71Q81.48 5.97 81.36 6.27Q81.11 6.97 81.14 7.82L81.16 8.25L80.1 8.37L80.17 10.11L81.23 10.07Z" fill="#FFFFFF" fill-opacity="1.000000" fill-rule="evenodd"/>
	<path id="t" d="M92.92 15.95Q93.48 16.66 94.75 16.82Q95.32 16.89 95.77 16.84Q96.22 16.8 96.53 16.74L96.38 15Q96.21 15.05 96.01 15.07Q95.8 15.09 95.61 15.07Q95.29 15.03 95.07 14.86Q94.98 14.78 94.91 14.69Q94.66 14.36 94.74 13.69L95.13 10.53L97.02 10.76L97.24 8.93L95.35 8.7L95.61 6.61L93.67 6.37L93.14 8.43L91.93 8.38L91.72 10.11L92.79 10.24L92.41 13.44Q92.24 14.8 92.77 15.72Q92.84 15.84 92.92 15.95Z" fill="#FFFFFF" fill-opacity="1.000000" fill-rule="evenodd"/>
	<path id="h" d="M106.63 7.46L103.21 18.15L105.45 18.86L107.08 13.76Q107.56 13.52 107.93 13.43Q108.29 13.33 108.72 13.47Q109.11 13.59 109.26 13.86Q109.31 13.92 109.33 14Q109.46 14.38 109.19 15.2L107.79 19.61L110.03 20.32L111.53 15.63Q111.98 14.21 111.68 13.22Q111.6 12.96 111.47 12.74Q111.07 12.12 110.15 11.83Q109.4 11.59 108.72 11.73Q108.72 11.73 108.72 11.73Q108.04 11.87 107.49 12.12L108.03 10.8L108.87 8.18L106.63 7.46Z" fill="#FFFFFF" fill-opacity="1.000000" fill-rule="evenodd"/>
	<path id="e" d="M118.5 23.99Q119.03 24.7 119.88 25.18Q120.49 25.52 121.26 25.68Q122.04 25.84 122.77 25.77L122.79 24.15Q121.78 24.18 121.03 23.77Q120.49 23.46 120.19 22.99Q120.12 22.88 120.06 22.75Q120.03 22.69 120.01 22.63Q119.8 22.05 120.06 21.29L124.2 23.62Q124.3 23.51 124.47 23.27Q124.64 23.02 124.79 22.76Q125.32 21.81 125.42 20.88Q125.47 20.29 125.34 19.76Q125.25 19.44 125.1 19.14Q124.7 18.34 123.71 17.78Q123.47 17.65 123.21 17.55Q122.59 17.33 121.89 17.34Q121.66 17.34 121.44 17.37Q120.68 17.48 119.96 17.9Q119.04 18.45 118.41 19.58Q117.77 20.72 117.77 21.79Q117.78 22.43 117.98 23Q118.11 23.39 118.33 23.74Q118.41 23.87 118.5 23.99ZM123.3 21.33L120.8 19.93Q121.28 19.34 121.84 19.22Q122.18 19.15 122.49 19.22Q122.69 19.27 122.88 19.37Q123.38 19.65 123.51 20.06Q123.54 20.15 123.55 20.24Q123.62 20.76 123.3 21.33Z" fill="#FFFFFF" fill-opacity="1.000000" fill-rule="evenodd"/>
	<path id="w" d="M133.28 24.02L129.43 31.25L131.43 33.05L134.07 31.17Q134.53 30.83 134.97 30.47Q135.41 30.11 135.92 29.71L135.97 29.76Q135.63 30.31 135.32 30.79Q135.03 31.28 134.74 31.77L133.15 34.6L135.19 36.45L141.92 31.83L140.31 30.37L137.29 32.6Q136.8 32.97 136.36 33.35Q135.92 33.72 135.43 34.1L135.39 34.06Q135.71 33.53 136 33.02Q136.31 32.52 136.6 31.98L138.4 28.65L136.89 27.28L133.77 29.43Q133.28 29.75 132.81 30.12Q132.34 30.49 131.85 30.86L131.8 30.82Q132.14 30.3 132.46 29.82Q132.79 29.34 133.12 28.84L135.01 25.59L133.28 24.02Z" fill="#FFFFFF" fill-opacity="1.000000" fill-rule="evenodd"/>
	<path id="e" d="M141.96 44.15Q142.13 45.03 142.69 45.82Q143.09 46.4 143.72 46.87Q144.35 47.35 145.04 47.61L145.75 46.15Q144.83 45.74 144.34 45.05Q143.98 44.53 143.91 43.99Q143.89 43.85 143.9 43.72Q143.9 43.65 143.9 43.58Q143.97 42.96 144.52 42.39L147.26 46.28Q147.4 46.22 147.65 46.08Q147.91 45.94 148.16 45.76Q149.05 45.13 149.53 44.34Q149.84 43.83 149.95 43.29Q150.01 42.97 150 42.63Q149.99 41.74 149.34 40.81Q149.17 40.58 148.98 40.38Q148.52 39.91 147.88 39.62Q147.67 39.52 147.46 39.46Q146.73 39.22 145.9 39.3Q144.84 39.39 143.78 40.14Q142.7 40.9 142.25 41.86Q141.98 42.44 141.91 43.04Q141.87 43.45 141.91 43.86Q141.93 44.01 141.96 44.15ZM147.43 43.83L145.78 41.49Q146.47 41.16 147.03 41.3Q147.37 41.38 147.62 41.58Q147.77 41.71 147.9 41.88Q148.23 42.35 148.17 42.77Q148.16 42.87 148.13 42.95Q147.97 43.45 147.43 43.83Z" fill="#FFFFFF" fill-opacity="1.000000" fill-rule="evenodd"/>
	<path id="e" d="M148.97 55.84Q148.96 56.73 149.36 57.62Q149.64 58.26 150.17 58.85Q150.69 59.44 151.32 59.82L152.3 58.53Q151.47 57.96 151.12 57.18Q150.87 56.61 150.91 56.05Q150.92 55.92 150.95 55.79Q150.96 55.72 150.98 55.66Q151.16 55.06 151.82 54.61L153.75 58.96Q153.9 58.93 154.18 58.84Q154.46 58.74 154.74 58.62Q155.73 58.18 156.36 57.49Q156.76 57.05 156.97 56.54Q157.09 56.24 157.15 55.91Q157.31 55.03 156.85 53.99Q156.74 53.73 156.58 53.5Q156.22 52.95 155.65 52.54Q155.47 52.41 155.27 52.3Q154.6 51.93 153.77 51.84Q152.71 51.73 151.53 52.25Q150.33 52.79 149.69 53.65Q149.31 54.16 149.13 54.74Q149.01 55.13 148.98 55.54Q148.97 55.69 148.97 55.84ZM154.39 56.58L153.23 53.97Q153.97 53.78 154.49 54.02Q154.81 54.17 155.01 54.41Q155.14 54.57 155.23 54.76Q155.47 55.29 155.33 55.69Q155.3 55.78 155.25 55.86Q155 56.32 154.39 56.58Z" fill="#FFFFFF" fill-opacity="1.000000" fill-rule="evenodd"/>
	<path id="k" d="M163.95 64.49L153.01 66.97L153.52 69.21L155.42 68.77L156.75 69.51L154.14 71.94L154.7 74.42L158.59 70.47L162.39 72.46L161.83 69.96L158.2 68.21L158.18 68.15L164.45 66.73L163.95 64.49Z" fill="#FFFFFF" fill-opacity="1.000000" fill-rule="evenodd"/>
	<path id="A" d="M165.88 82.27L155.38 79.22L155.43 81.62L157.93 82.21L157.99 85.39L155.53 86.09L155.58 88.58L165.94 85.1L165.88 82.27ZM159.78 82.65L160.74 82.89Q161.53 83.09 162.4 83.27Q163.28 83.46 164.12 83.63L164.12 83.69Q163.31 83.92 162.43 84.16Q161.55 84.39 160.78 84.61L159.82 84.87L159.78 82.65Z" fill="#FFFFFF" fill-opacity="1.000000" fill-rule="evenodd"/>
	<path id="r" d="M162.77 96.28L154.94 94.96L154.55 97.28L159.09 98.05Q159.83 98.49 160.07 99.03Q160.31 99.57 160.24 100.01Q160.19 100.26 160.13 100.45Q160.07 100.65 159.97 100.84L161.91 101.56Q162.01 101.41 162.09 101.2Q162.17 100.99 162.22 100.65Q162.32 100.05 162.04 99.39Q161.75 98.72 161.03 98.16L161.05 98.1L162.45 98.18L162.77 96.28Z" fill="#FFFFFF" fill-opacity="1.000000" fill-rule="evenodd"/>
	<path id="t" d="M152.5 107.57Q151.68 107.97 151.26 109.17Q151.07 109.72 151.02 110.16Q150.96 110.61 150.96 110.93L152.69 111.15Q152.68 110.97 152.7 110.77Q152.73 110.56 152.79 110.38Q152.89 110.08 153.11 109.9Q153.2 109.83 153.31 109.78Q153.68 109.61 154.32 109.83L157.33 110.87L156.7 112.68L158.44 113.28L159.07 111.48L161.06 112.17L161.7 110.33L159.8 109.38L160.1 108.2L158.46 107.63L158.1 108.65L155.06 107.6Q153.76 107.15 152.75 107.46Q152.62 107.51 152.5 107.57Z" fill="#FFFFFF" fill-opacity="1.000000" fill-rule="evenodd"/>
	<path id="w" d="M155.41 120.72L147.59 118.31L146.2 120.61L148.54 122.85Q148.96 123.24 149.4 123.6Q149.83 123.97 150.32 124.4L150.29 124.45Q149.68 124.21 149.15 124.01Q148.62 123.81 148.08 123.62L145 122.6L143.57 124.95L149.38 130.69L150.51 128.83L147.75 126.28Q147.3 125.88 146.84 125.51Q146.38 125.16 145.92 124.74L145.95 124.69Q146.53 124.91 147.09 125.1Q147.64 125.3 148.23 125.48L151.84 126.62L152.89 124.88L150.2 122.22Q149.79 121.81 149.34 121.41Q148.88 121.02 148.42 120.61L148.45 120.55Q149.03 120.79 149.56 121.02Q150.09 121.25 150.65 121.47L154.2 122.72L155.41 120.72Z" fill="#FFFFFF" fill-opacity="1.000000" fill-rule="evenodd"/>
	<path id="o" d="M136.6 133.4Q136.22 133.64 135.89 133.98Q135.53 134.35 135.29 134.79Q135.06 135.21 134.93 135.68Q134.87 135.92 134.84 136.17Q134.75 136.91 134.97 137.69Q135.26 138.74 136.21 139.65Q137.17 140.57 138.21 140.82Q138.99 141.01 139.72 140.89Q139.97 140.85 140.22 140.78Q140.69 140.63 141.1 140.39Q141.52 140.13 141.88 139.76Q142.21 139.42 142.44 139.02Q142.7 138.57 142.85 138.05Q142.92 137.78 142.95 137.51Q143.03 136.79 142.82 136.03Q142.53 135 141.57 134.08Q140.63 133.17 139.58 132.91Q138.81 132.72 138.08 132.84Q137.82 132.88 137.56 132.96Q137.04 133.12 136.6 133.4ZM136.93 135.87Q137.01 135.56 137.26 135.3Q137.53 135.02 137.86 134.94Q138.14 134.86 138.46 134.94Q139.16 135.11 139.89 135.82Q140.64 136.54 140.83 137.22Q140.92 137.53 140.86 137.81Q140.78 138.15 140.51 138.44Q140.25 138.7 139.95 138.79Q139.65 138.87 139.32 138.79Q138.62 138.64 137.88 137.92Q137.14 137.21 136.95 136.52Q136.85 136.17 136.93 135.87Z" fill="#FFFFFF" fill-opacity="1.000000" fill-rule="evenodd"/>
	<path id="r" d="M133.08 147.42L128.45 140.98L126.54 142.35L129.23 146.09Q129.43 146.93 129.23 147.48Q129.02 148.03 128.65 148.29Q128.45 148.44 128.27 148.53Q128.09 148.62 127.88 148.69L128.75 150.57Q128.93 150.54 129.13 150.44Q129.34 150.34 129.61 150.15Q130.11 149.79 130.37 149.12Q130.64 148.45 130.52 147.54L130.57 147.51L131.52 148.55L133.08 147.42Z" fill="#FFFFFF" fill-opacity="1.000000" fill-rule="evenodd"/>
	<path id="k" d="M123.49 157.48L118.7 147.34L116.63 148.32L117.47 150.08L117.04 151.54L114.1 149.51L111.8 150.6L116.5 153.54L115.38 157.69L117.7 156.59L118.62 152.67L118.68 152.64L121.43 158.45L123.49 157.48Z" fill="#FFFFFF" fill-opacity="1.000000" fill-rule="evenodd"/>
	<path id="o" d="M103.7 153.08Q103.24 153.09 102.78 153.2Q102.29 153.33 101.85 153.57Q101.43 153.8 101.07 154.13Q100.89 154.31 100.73 154.5Q100.26 155.08 100.04 155.86Q99.74 156.9 100.06 158.17Q100.38 159.46 101.14 160.23Q101.7 160.8 102.38 161.09Q102.61 161.19 102.86 161.26Q103.34 161.38 103.82 161.39Q104.31 161.39 104.81 161.27Q105.27 161.15 105.68 160.94Q106.14 160.7 106.53 160.33Q106.74 160.14 106.91 159.92Q107.36 159.36 107.58 158.61Q107.88 157.58 107.56 156.29Q107.24 155.02 106.48 154.24Q105.93 153.67 105.25 153.39Q105.01 153.28 104.74 153.21Q104.22 153.07 103.7 153.08ZM102.67 155.35Q102.9 155.13 103.25 155.05Q103.63 154.95 103.95 155.05Q104.23 155.14 104.46 155.38Q104.96 155.89 105.21 156.88Q105.46 157.89 105.26 158.56Q105.17 158.87 104.97 159.08Q104.74 159.32 104.35 159.42Q103.99 159.51 103.69 159.42Q103.39 159.34 103.15 159.09Q102.64 158.6 102.39 157.59Q102.14 156.6 102.34 155.91Q102.45 155.57 102.67 155.35Z" fill="#FFFFFF" fill-opacity="1.000000" fill-rule="evenodd"/>
	<path id="f" d="M92.79 161.29L92.35 155.21L90.01 155.38L90.45 161.46L89.03 161.56L89.16 163.4L90.58 163.3L90.61 163.77Q90.66 164.38 90.44 164.66Q90.39 164.72 90.32 164.78Q90.11 164.95 89.79 164.97Q89.6 164.98 89.39 164.96Q89.17 164.94 88.96 164.87L88.65 166.63Q88.92 166.7 89.34 166.77Q89.76 166.83 90.26 166.8Q91.32 166.72 91.93 166.26Q92.28 166 92.5 165.66Q92.68 165.4 92.78 165.09Q93.02 164.39 92.95 163.54L92.92 163.11L93.97 162.95L93.85 161.22L92.79 161.29Z" fill="#FFFFFF" fill-opacity="1.000000" fill-rule="evenodd"/>
	<path id="t" d="M80.91 155.8Q80.33 155.1 79.05 154.99Q78.48 154.94 78.04 155Q77.59 155.05 77.28 155.12L77.49 156.86Q77.66 156.81 77.86 156.78Q78.06 156.75 78.26 156.77Q78.58 156.79 78.8 156.96Q78.89 157.03 78.97 157.12Q79.22 157.44 79.16 158.11L78.88 161.29L76.98 161.12L76.82 162.95L78.72 163.12L78.54 165.22L80.48 165.39L80.94 163.32L82.15 163.33L82.31 161.59L81.23 161.49L81.51 158.29Q81.63 156.92 81.08 156.02Q81 155.9 80.91 155.8Z" fill="#FFFFFF" fill-opacity="1.000000" fill-rule="evenodd"/>
	<path id="h" d="M67.49 164.73L70.55 153.94L68.29 153.3L66.83 158.45Q66.36 158.7 66 158.8Q65.63 158.91 65.2 158.79Q64.81 158.68 64.65 158.42Q64.6 158.36 64.58 158.28Q64.44 157.91 64.67 157.08L65.94 152.63L63.67 151.98L62.33 156.73Q61.92 158.16 62.25 159.14Q62.34 159.39 62.48 159.6Q62.9 160.22 63.83 160.48Q64.59 160.69 65.26 160.53Q65.26 160.53 65.27 160.53Q65.94 160.36 66.48 160.1L65.98 161.44L65.23 164.08L67.49 164.73Z" fill="#FFFFFF" fill-opacity="1.000000" fill-rule="evenodd"/>
	<path id="e" d="M55.08 148.6Q54.53 147.9 53.67 147.46Q53.04 147.13 52.27 147Q51.49 146.87 50.76 146.95L50.8 148.58Q51.81 148.51 52.56 148.9Q53.12 149.19 53.43 149.65Q53.51 149.76 53.57 149.88Q53.6 149.94 53.62 150Q53.85 150.58 53.62 151.34L49.4 149.15Q49.3 149.27 49.14 149.51Q48.98 149.76 48.84 150.03Q48.34 151 48.28 151.93Q48.24 152.52 48.39 153.05Q48.48 153.36 48.64 153.65Q49.07 154.44 50.08 154.97Q50.33 155.1 50.59 155.18Q51.22 155.39 51.92 155.35Q52.14 155.34 52.37 155.3Q53.12 155.17 53.82 154.73Q54.72 154.15 55.32 153Q55.92 151.83 55.88 150.77Q55.86 150.13 55.64 149.56Q55.49 149.19 55.26 148.84Q55.18 148.72 55.08 148.6ZM50.38 151.41L52.92 152.73Q52.46 153.34 51.9 153.47Q51.56 153.55 51.25 153.49Q51.05 153.45 50.86 153.35Q50.35 153.09 50.2 152.69Q50.17 152.6 50.16 152.51Q50.07 151.99 50.38 151.41Z" fill="#FFFFFF" fill-opacity="1.000000" fill-rule="evenodd"/>
	<path id="w" d="M40.32 149.04L43.92 141.7L41.87 139.96L39.29 141.93Q38.84 142.28 38.42 142.65Q37.98 143.03 37.48 143.44L37.44 143.4Q37.76 142.84 38.05 142.34Q38.33 141.85 38.6 141.35L40.1 138.47L38 136.69L31.42 141.52L33.08 142.93L36.03 140.6Q36.5 140.22 36.93 139.83Q37.35 139.43 37.83 139.04L37.88 139.08Q37.57 139.62 37.3 140.14Q37.01 140.65 36.74 141.2L35.05 144.59L36.6 145.9L39.65 143.66Q40.12 143.32 40.58 142.94Q41.04 142.55 41.52 142.16L41.57 142.2Q41.25 142.73 40.94 143.22Q40.63 143.71 40.32 144.23L38.53 147.53L40.32 149.04Z" fill="#FFFFFF" fill-opacity="1.000000" fill-rule="evenodd"/>
	<path id="e" d="M30.98 129.21Q30.78 128.34 30.2 127.56Q29.77 127 29.13 126.55Q28.48 126.09 27.79 125.86L27.12 127.34Q28.06 127.71 28.58 128.39Q28.95 128.89 29.04 129.44Q29.06 129.57 29.06 129.71Q29.06 129.77 29.06 129.84Q29.01 130.46 28.48 131.05L25.61 127.25Q25.48 127.32 25.23 127.47Q24.97 127.62 24.73 127.8Q23.86 128.46 23.4 129.27Q23.11 129.79 23.02 130.33Q22.97 130.66 22.99 130.99Q23.03 131.88 23.72 132.79Q23.89 133.02 24.09 133.21Q24.56 133.66 25.21 133.93Q25.42 134.02 25.64 134.08Q26.38 134.29 27.2 134.19Q28.26 134.06 29.3 133.28Q30.34 132.49 30.77 131.51Q31.02 130.92 31.07 130.32Q31.1 129.91 31.04 129.5Q31.01 129.35 30.98 129.21ZM25.52 129.71L27.25 132Q26.57 132.35 26.01 132.23Q25.67 132.16 25.41 131.97Q25.25 131.84 25.12 131.67Q24.77 131.21 24.81 130.79Q24.82 130.7 24.85 130.61Q25 130.1 25.52 129.71Z" fill="#FFFFFF" fill-opacity="1.000000" fill-rule="evenodd"/>
	<path id="e" d="M23.6 117.76Q23.57 116.87 23.15 115.99Q22.84 115.36 22.3 114.79Q21.75 114.22 21.12 113.85L20.17 115.18Q21.02 115.72 21.4 116.49Q21.67 117.05 21.65 117.6Q21.64 117.74 21.62 117.88Q21.6 117.94 21.59 118Q21.43 118.6 20.78 119.08L18.71 114.8Q18.57 114.83 18.29 114.93Q18.01 115.03 17.74 115.17Q16.76 115.64 16.15 116.35Q15.77 116.8 15.57 117.32Q15.46 117.62 15.41 117.95Q15.28 118.84 15.78 119.86Q15.9 120.12 16.06 120.34Q16.44 120.88 17.02 121.27Q17.21 121.4 17.41 121.5Q18.09 121.85 18.92 121.91Q19.99 121.99 21.15 121.42Q22.34 120.85 22.94 119.97Q23.3 119.44 23.47 118.86Q23.57 118.47 23.59 118.05Q23.6 117.9 23.6 117.76ZM18.15 117.19L19.39 119.77Q18.66 119.98 18.13 119.76Q17.81 119.62 17.6 119.38Q17.46 119.23 17.37 119.04Q17.12 118.52 17.24 118.11Q17.27 118.02 17.31 117.94Q17.56 117.48 18.15 117.19Z" fill="#FFFFFF" fill-opacity="1.000000" fill-rule="evenodd"/>
	<path id="k" d="M8.34 109.6L19.19 106.76L18.61 104.54L16.72 105.04L15.37 104.35L17.9 101.84L17.26 99.37L13.5 103.45L9.63 101.58L10.28 104.06L13.97 105.69L13.98 105.76L7.76 107.38L8.34 109.6Z" fill="#FFFFFF" fill-opacity="1.000000" fill-rule="evenodd"/>
	<path id=" " d="" fill="#FFFFFF" fill-opacity="1.000000" fill-rule="evenodd"/>
	<path id=" " d="" fill="#FFFFFF" fill-opacity="1.000000" fill-rule="evenodd"/>
</svg>
