<svg width="14.999451" height="11.686279" viewBox="0 0 14.9995 11.6863" fill="none" xmlns="http://www.w3.org/2000/svg" xmlns:xlink="http://www.w3.org/1999/xlink">
	<desc>
			Created with Pixso.
	</desc>
	<defs/>
	<path id="Vector" d="M14.03 0.04L13.78 0.13L0.31 4.98C0.22 5.01 0.13 5.07 0.08 5.15C0.02 5.24 -0.01 5.34 0 5.43C0 5.53 0.04 5.63 0.1 5.71C0.17 5.78 0.25 5.84 0.35 5.86L3.84 6.81L4.49 8.72L5.14 10.63C5.18 10.72 5.24 10.81 5.31 10.87C5.39 10.94 5.48 10.98 5.58 11C5.68 11.03 5.78 11.02 5.88 11C5.98 10.97 6.06 10.92 6.14 10.85L7.94 9.15L11.48 11.55C11.91 11.84 12.53 11.62 12.64 11.14L14.98 0.79C15.09 0.27 14.55 -0.15 14.03 0.04ZM12.31 2.34L6.23 7.31L5.94 7.55C5.88 7.6 5.84 7.67 5.82 7.75L5.76 8.28L5.58 9.76C5.59 9.78 5.58 9.8 5.57 9.81C5.56 9.83 5.54 9.84 5.52 9.84C5.5 9.84 5.49 9.83 5.47 9.82C5.46 9.81 5.45 9.79 5.45 9.78L4.95 8.29L4.44 6.77C4.42 6.7 4.42 6.63 4.45 6.56C4.48 6.49 4.53 6.44 4.59 6.41L10.92 2.78L12.11 2.09C12.29 1.99 12.46 2.21 12.31 2.34Z" fill="#090F1D" fill-opacity="1.000000" fill-rule="nonzero"/>
</svg>
