<svg width="14.993225" height="12.478760" viewBox="0 0 14.9932 12.4788" fill="none" xmlns="http://www.w3.org/2000/svg" xmlns:xlink="http://www.w3.org/1999/xlink">
	<desc>
			Created with Pixso.
	</desc>
	<defs/>
	<path id="Vector" d="M14.96 1.7C14.6 2.23 14.17 2.7 13.67 3.11C13.61 3.16 13.56 3.22 13.52 3.3C13.49 3.37 13.47 3.45 13.47 3.53L13.47 3.59C13.46 4.66 13.26 5.72 12.89 6.72C12.5 7.77 11.92 8.74 11.18 9.59C10.19 10.71 8.91 11.55 7.49 12.02C6.55 12.33 5.57 12.48 4.58 12.47C3.01 12.47 1.48 12.06 0.12 11.27C0.08 11.24 0.04 11.2 0.02 11.15C-0.01 11.1 -0.01 11.04 0 10.99C0.02 10.93 0.05 10.89 0.09 10.85C0.14 10.82 0.19 10.8 0.24 10.8L0.62 10.8C1.81 10.8 2.97 10.45 3.95 9.78C3.37 9.68 2.82 9.43 2.37 9.04C1.91 8.65 1.58 8.15 1.39 7.58C1.38 7.55 1.38 7.52 1.39 7.5C1.39 7.47 1.41 7.44 1.43 7.42C1.45 7.4 1.47 7.38 1.5 7.37C1.53 7.36 1.56 7.36 1.59 7.36C1.77 7.4 1.95 7.42 2.13 7.42L2.2 7.42C1.63 7.15 1.15 6.73 0.81 6.2C0.48 5.67 0.3 5.06 0.31 4.43C0.31 4.4 0.32 4.37 0.33 4.35C0.35 4.32 0.37 4.3 0.4 4.29C0.42 4.27 0.45 4.26 0.48 4.26C0.51 4.26 0.54 4.27 0.56 4.28C0.79 4.41 1.04 4.51 1.3 4.57C0.79 4.07 0.46 3.41 0.37 2.7C0.27 1.99 0.41 1.26 0.77 0.64C0.79 0.62 0.81 0.6 0.83 0.59C0.85 0.57 0.88 0.57 0.9 0.56C0.93 0.56 0.96 0.56 0.98 0.57C1.01 0.58 1.03 0.6 1.05 0.62C1.76 1.5 2.65 2.23 3.65 2.77C4.65 3.3 5.75 3.63 6.88 3.73L6.89 3.73C6.91 3.73 6.92 3.73 6.94 3.72C6.96 3.71 6.97 3.7 6.98 3.69C6.99 3.68 7 3.66 7 3.65C7.01 3.63 7.01 3.62 7.01 3.6C6.97 3.2 6.99 2.8 7.09 2.42C7.17 2.08 7.31 1.75 7.49 1.46C7.89 0.84 8.5 0.37 9.2 0.15C9.54 0.05 9.88 0 10.23 0C11.02 -0.01 11.78 0.28 12.37 0.8C12.44 0.87 12.54 0.91 12.64 0.91C12.67 0.91 12.71 0.9 12.74 0.9C13.29 0.75 13.83 0.53 14.32 0.24C14.35 0.22 14.38 0.22 14.42 0.22C14.45 0.22 14.48 0.23 14.51 0.26C14.54 0.28 14.56 0.31 14.57 0.34C14.58 0.37 14.58 0.41 14.57 0.44C14.4 0.96 14.11 1.42 13.72 1.79C14.07 1.71 14.42 1.59 14.75 1.45C14.78 1.43 14.82 1.43 14.86 1.44C14.89 1.44 14.93 1.46 14.95 1.49C14.97 1.52 14.99 1.56 14.99 1.59C14.99 1.63 14.98 1.67 14.96 1.7Z" fill="#090F1D" fill-opacity="1.000000" fill-rule="nonzero"/>
</svg>
